Land_normalized_pl10_filtered_grf
version=1
nRows=12
nColumns=37
inDegrees=yes
endheader
time		1_ground_force_vx		1_ground_force_vy		1_ground_force_vz		1_ground_force_px		1_ground_force_py		1_ground_force_pz		1_ground_torque_x		1_ground_torque_y		1_ground_torque_z		2_ground_force_vx		2_ground_force_vy		2_ground_force_vz		2_ground_force_px		2_ground_force_py		2_ground_force_pz		2_ground_torque_x		2_ground_torque_y		2_ground_torque_z		3_ground_force_vx		3_ground_force_vy		3_ground_force_vz		3_ground_force_px		3_ground_force_py		3_ground_force_pz		3_ground_torque_x		3_ground_torque_y		3_ground_torque_z		4_ground_force_vx		4_ground_force_vy		4_ground_force_vz		4_ground_force_px		4_ground_force_py		4_ground_force_pz		4_ground_torque_x		4_ground_torque_y		4_ground_torque_z		
0.787833		-43.767098		870.274721		159.387835		0.122005		0.000000		0.241738		-0.781438		15.538284		2.845783		55.627283		767.033092		123.077176		-0.132592		0.000000		0.224837		-0.114231		-1.575222		-0.252755		21.523833		1.817681		0.398836		0.375819		1.311378		1.914015		-0.106119		-0.008961		-0.001966		-18.964727		-0.833565		1.390312		-0.265433		1.310040		1.924993		0.006395		0.000281		-0.000469		
0.790763		-43.085029		867.549675		160.288446		0.121923		0.000000		0.241672		-0.765905		15.422079		2.849382		57.581826		756.972370		122.121573		-0.133360		0.000000		0.225191		-0.084052		-1.105111		-0.178284		21.456929		1.804143		0.327628		0.375785		1.311355		1.914015		-0.105498		-0.008870		-0.001611		-18.966376		-0.825599		1.456369		-0.265469		1.310034		1.924971		0.003816		0.000166		-0.000293		
0.793692		-42.400177		862.483844		161.315065		0.121814		0.000000		0.241538		-0.750372		15.263705		2.854853		59.739595		747.028506		120.940625		-0.134191		0.000000		0.225619		-0.054630		-0.683262		-0.110617		21.455607		1.788918		0.298751		0.375755		1.311331		1.914016		-0.104698		-0.008729		-0.001458		-18.926301		-0.763568		1.556078		-0.265503		1.310028		1.924951		0.003138		0.000126		-0.000258		
0.796621		-41.690621		855.246426		162.335012		0.121687		0.000000		0.241345		-0.734746		15.072669		2.860955		61.760982		737.435746		119.460113		-0.135041		0.000000		0.226126		-0.032202		-0.384542		-0.062294		21.505474		1.763220		0.298513		0.375730		1.311311		1.914017		-0.104256		-0.008548		-0.001447		-18.851719		-0.676381		1.670011		-0.265533		1.310021		1.924932		0.004404		0.000158		-0.000390		
0.799551		-40.985153		846.235624		163.201606		0.121559		0.000000		0.241115		-0.719365		14.852995		2.864488		63.474100		728.388640		117.716259		-0.135884		0.000000		0.226691		-0.020497		-0.235219		-0.038014		21.583371		1.717620		0.308394		0.375709		1.311297		1.914020		-0.104657		-0.008329		-0.001495		-18.762850		-0.594720		1.789041		-0.265556		1.310016		1.924915		0.007002		0.000222		-0.000668		
0.802480		-40.329039		836.043612		163.795136		0.121448		0.000000		0.240858		-0.704851		14.611963		2.862732		64.870817		720.025370		115.867164		-0.136701		0.000000		0.227275		-0.018144		-0.201388		-0.032407		21.662001		1.651156		0.317785		0.375690		1.311290		1.914025		-0.106130		-0.008090		-0.001557		-18.688743		-0.540355		1.910086		-0.265571		1.310012		1.924898		0.009962		0.000288		-0.001019		
0.805409		-39.739149		825.359315		164.082283		0.121353		0.000000		0.240564		-0.691739		14.367021		2.856178		66.020294		712.420806		114.153178		-0.137472		0.000000		0.227818		-0.019317		-0.208451		-0.033401		21.715996		1.576829		0.331337		0.375674		1.311292		1.914033		-0.108540		-0.007881		-0.001656		-18.659341		-0.519949		2.027374		-0.265577		1.310010		1.924885		0.012298		0.000343		-0.001336		
0.808338		-39.203551		814.840980		164.129336		0.121258		0.000000		0.240203		-0.680239		14.138688		2.847884		66.961484		705.591574		112.816386		-0.138161		0.000000		0.228255		-0.017191		-0.181151		-0.028964		21.730092		1.518316		0.364641		0.375660		1.311299		1.914042		-0.111406		-0.007784		-0.001870		-18.694063		-0.524300		2.126165		-0.265575		1.310010		1.924875		0.013337		0.000374		-0.001517		
0.811268		-38.731398		805.025876		164.039249		0.121148		0.000000		0.239761		-0.670558		13.937450		2.840019		67.638017		699.535645		112.021559		-0.138717		0.000000		0.228531		-0.007709		-0.079751		-0.012770		21.703225		1.499738		0.432208		0.375647		1.311308		1.914053		-0.114039		-0.007880		-0.002271		-18.793111		-0.533746		2.184850		-0.265568		1.310011		1.924871		0.012940		0.000367		-0.001504		
0.814197		-38.388802		796.288673		163.870232		0.121027		0.000000		0.239269		-0.663431		13.761378		2.831988		67.909289		694.273215		111.805826		-0.139089		0.000000		0.228621		0.008516		0.087048		0.014020		21.647238		1.535342		0.536857		0.375639		1.311318		1.914066		-0.115737		-0.008209		-0.002871		-18.935365		-0.528101		2.185061		-0.265555		1.310012		1.924871		0.011529		0.000322		-0.001331		
0.817126		-38.280428		788.827644		163.611301		0.120921		0.000000		0.238803		-0.660211		13.604686		2.821757		67.618889		689.871602		112.070647		-0.139241		0.000000		0.228537		0.026864		0.274078		0.044526		21.581447		1.622318		0.664930		0.375637		1.311326		1.914080		-0.115996		-0.008720		-0.003574		-19.084040		-0.497883		2.123722		-0.265539		1.310013		1.924876		0.009850		0.000257		-0.001096		
0.820056		-38.493813		782.671185		163.219977		0.120857		0.000000		0.238431		-0.662361		13.467400		2.808521		66.677534		686.434321		112.614797		-0.139170		0.000000		0.228327		0.041327		0.425460		0.069801		21.525251		1.739411		0.789656		0.375643		1.311333		1.914091		-0.114652		-0.009265		-0.004206		-19.197643		-0.450429		2.019416		-0.265520		1.310014		1.924884		0.008606		0.000202		-0.000905		
